<svg width="20" height="20" viewBox="0 0 20 20" fill="none" xmlns="http://www.w3.org/2000/svg">
<path d="M10 6.66675C10 6.66675 10 6.66675 9.36667 5.83341C8.63333 4.86675 7.55 4.16675 6.25 4.16675C4.175 4.16675 2.5 5.84175 2.5 7.91675C2.5 8.69175 2.73333 9.40841 3.13333 10.0001C3.80833 11.0084 10 17.5001 10 17.5001M10 6.66675C10 6.66675 10 6.66675 10.6333 5.83341C11.3667 4.86675 12.45 4.16675 13.75 4.16675C15.825 4.16675 17.5 5.84175 17.5 7.91675C17.5 8.69175 17.2667 9.40841 16.8667 10.0001C16.1917 11.0084 10 17.5001 10 17.5001" stroke="black" stroke-width="2" stroke-linecap="round" stroke-linejoin="round"/>
</svg>
