<svg width="20" height="20" viewBox="0 0 20 20" fill="none" xmlns="http://www.w3.org/2000/svg">
<path d="M16.6665 8.33324C16.6665 8.11222 16.5787 7.90026 16.4224 7.74398C16.2661 7.5877 16.0542 7.4999 15.8332 7.4999C15.6121 7.4999 15.4002 7.5877 15.2439 7.74398C15.0876 7.90026 14.9998 8.11222 14.9998 8.33324H16.6665ZM4.99982 8.33324C4.99982 8.11222 4.91203 7.90026 4.75575 7.74398C4.59947 7.5877 4.3875 7.4999 4.16649 7.4999C3.94548 7.4999 3.73351 7.5877 3.57723 7.74398C3.42095 7.90026 3.33316 8.11222 3.33316 8.33324H4.99982ZM16.9107 10.5891C17.0678 10.7409 17.2783 10.8249 17.4968 10.823C17.7153 10.8211 17.9243 10.7334 18.0788 10.5789C18.2333 10.4244 18.321 10.2154 18.3229 9.9969C18.3248 9.77841 18.2408 9.56791 18.089 9.41074L16.9107 10.5891ZM9.99982 2.4999L10.589 1.91074C10.4327 1.75451 10.2208 1.66675 9.99982 1.66675C9.77885 1.66675 9.56693 1.75451 9.41066 1.91074L9.99982 2.4999ZM1.91066 9.41074C1.83106 9.48761 1.76758 9.57956 1.72391 9.68123C1.68023 9.7829 1.65724 9.89225 1.65628 10.0029C1.65532 10.1136 1.6764 10.2233 1.71831 10.3257C1.76021 10.4281 1.82208 10.5212 1.90033 10.5994C1.97857 10.6776 2.07161 10.7395 2.17403 10.7814C2.27644 10.8233 2.38618 10.8444 2.49682 10.8434C2.60747 10.8425 2.71682 10.8195 2.81849 10.7758C2.92016 10.7321 3.01212 10.6687 3.08899 10.5891L1.91066 9.41074ZM5.83316 18.3332H14.1665V16.6666H5.83316V18.3332ZM16.6665 15.8332V8.33324H14.9998V15.8332H16.6665ZM4.99982 15.8332V8.33324H3.33316V15.8332H4.99982ZM18.089 9.41074L10.589 1.91074L9.41066 3.08907L16.9107 10.5891L18.089 9.41074ZM9.41066 1.91074L1.91066 9.41074L3.08899 10.5891L10.589 3.08907L9.41066 1.91074ZM14.1665 18.3332C14.8295 18.3332 15.4654 18.0698 15.9343 17.601C16.4031 17.1322 16.6665 16.4963 16.6665 15.8332H14.9998C14.9998 16.0543 14.912 16.2662 14.7557 16.4225C14.5995 16.5788 14.3875 16.6666 14.1665 16.6666V18.3332ZM5.83316 16.6666C5.61214 16.6666 5.40018 16.5788 5.2439 16.4225C5.08762 16.2662 4.99982 16.0543 4.99982 15.8332H3.33316C3.33316 16.4963 3.59655 17.1322 4.06539 17.601C4.53423 18.0698 5.17012 18.3332 5.83316 18.3332V16.6666Z" fill="black"/>
</svg>
