<svg width="20" height="20" viewBox="0 0 20 20" fill="none" xmlns="http://www.w3.org/2000/svg">
<path d="M13.2016 10.0913C14.4327 10.6725 15.4824 11.5777 16.2381 12.71C16.9939 13.8424 17.4272 15.159 17.4916 16.5188C17.5002 16.6434 17.4838 16.7684 17.4434 16.8866C17.403 17.0047 17.3394 17.1136 17.2563 17.2068C17.1733 17.3001 17.0725 17.3758 16.9598 17.4295C16.8471 17.4832 16.7248 17.5139 16.6001 17.5197C16.4753 17.5256 16.3507 17.5064 16.2335 17.4634C16.1163 17.4204 16.0088 17.3545 15.9174 17.2694C15.8261 17.1843 15.7526 17.0818 15.7014 16.968C15.6501 16.8541 15.6221 16.7312 15.6191 16.6063C15.5509 15.162 14.9292 13.7994 13.8829 12.8013C12.8367 11.8033 11.4463 11.2464 10.0003 11.2464C8.55437 11.2464 7.16396 11.8033 6.1177 12.8013C5.07145 13.7994 4.44972 15.162 4.38157 16.6063C4.36474 16.8508 4.25284 17.079 4.06985 17.242C3.88686 17.405 3.64732 17.4898 3.40253 17.4784C3.15774 17.467 2.92716 17.3601 2.76016 17.1808C2.59317 17.0014 2.50304 16.7638 2.50907 16.5188C2.57336 15.1591 3.00648 13.8426 3.76201 12.7103C4.51753 11.578 5.56697 10.6726 6.79782 10.0913C6.00909 9.43345 5.44215 8.54857 5.17414 7.55706C4.90612 6.56555 4.95004 5.51555 5.29991 4.54988C5.64977 3.58422 6.28861 2.74976 7.12953 2.16003C7.97044 1.57029 8.9726 1.25391 9.9997 1.25391C11.0268 1.25391 12.029 1.57029 12.8699 2.16003C13.7108 2.74976 14.3496 3.58422 14.6995 4.54988C15.0494 5.51555 15.0933 6.56555 14.8253 7.55706C14.5572 8.54857 13.9903 9.43345 13.2016 10.0913ZM13.1253 6.25009C13.1253 5.42129 12.7961 4.62643 12.21 4.04038C11.624 3.45433 10.8291 3.12509 10.0003 3.12509C9.17152 3.12509 8.37667 3.45433 7.79061 4.04038C7.20456 4.62643 6.87532 5.42129 6.87532 6.25009C6.87532 7.07889 7.20456 7.87375 7.79061 8.4598C8.37667 9.04585 9.17152 9.37509 10.0003 9.37509C10.8291 9.37509 11.624 9.04585 12.21 8.4598C12.7961 7.87375 13.1253 7.07889 13.1253 6.25009Z" fill="black"/>
</svg>
